# Blender v2.79 (sub 0) OBJ File: 'bandBuilding.blend'
# www.blender.org
mtllib bandBuilding.mtl
o Cube
v -1.000000 0.000000 1.000000
v -3.000000 0.000000 1.000000
v -3.000000 0.000000 -1.000000
v -1.000001 2.000000 1.000001
v -3.000000 2.000000 1.000000
v -3.000000 2.000000 -1.000000
v 1.000000 0.000000 1.000001
v 0.999999 2.000000 1.000001
v 3.000000 0.000000 -0.999999
v 3.000000 0.000000 1.000001
v 3.000000 2.000000 -0.999998
v 2.999999 2.000000 1.000002
v -1.000000 0.000000 -3.000000
v -2.999999 0.000000 -3.000000
v -0.999999 2.000000 -3.000000
v -3.000000 2.000000 -3.000000
v 1.000000 0.000001 -3.000000
v 1.000001 2.000000 -2.999999
v 3.000000 0.000001 -2.999999
v 3.000001 2.000001 -2.999998
vt 0.673425 1.000000
vt 1.000000 1.000000
vt 1.000000 0.000001
vt 0.673425 0.000000
vt 0.346851 0.000001
vt 0.000000 0.000000
vt 0.000000 1.000000
vt 0.346851 1.000000
vt 1.000000 1.000000
vt 1.000000 0.000000
vt 0.497366 0.000000
vt 0.000000 0.000000
vt 0.000000 1.000000
vt 0.497366 1.000000
vt 0.477747 0.977808
vt 0.521457 0.977808
vt 0.521457 0.934098
vt 0.521457 0.890388
vt 0.477747 0.890388
vt 0.434037 0.890388
vt 0.390327 0.890388
vt 0.390327 0.934098
vt 0.390327 0.977808
vt 0.434037 0.977808
vt 0.507797 0.000000
vt 1.000000 0.000000
vt 1.000000 1.000000
vt 0.507797 1.000000
vt 0.665214 0.000000
vt 0.665214 1.000000
vt 0.332607 1.000000
vt 0.000000 1.000000
vt 0.000000 0.000000
vt 0.332607 0.000000
vt 0.186532 0.070363
vt 0.186532 0.031068
vt 0.225826 0.031068
vt 0.265121 0.031068
vt 0.304416 0.031068
vt 0.304416 0.070363
vt 0.304416 0.109658
vt 0.265121 0.109658
vt 0.225826 0.109658
vt 0.186532 0.109658
vn 0.0000 0.0000 -1.0000
vn -1.0000 -0.0000 -0.0000
vn 0.0000 -1.0000 -0.0000
vn 1.0000 -0.0000 0.0000
vn -0.0000 -0.0000 1.0000
vn -0.0000 1.0000 0.0000
usemtl Material
s off
f 13/1/1 14/2/1 16/3/1 15/4/1 18/5/1 20/6/1 19/7/1 17/8/1
f 2/9/2 5/10/2 6/11/2 16/12/2 14/13/2 3/14/2
f 1/15/3 2/16/3 3/17/3 14/18/3 13/19/3 17/20/3 19/21/3 9/22/3 10/23/3 7/24/3
f 11/25/4 12/26/4 10/27/4 9/28/4 19/7/4 20/6/4
f 4/29/5 5/10/5 2/9/5 1/30/5 7/31/5 10/32/5 12/33/5 8/34/5
f 6/35/6 5/36/6 4/37/6 8/38/6 12/39/6 11/40/6 20/41/6 18/42/6 15/43/6 16/44/6
