# Blender v2.79 (sub 0) OBJ File: 'BogardRedo.blend'
# www.blender.org
mtllib BogardWTexture.mtl
o Cube
v 2.767822 0.000000 -2.412420
v 2.767822 0.000000 2.412421
v -2.767822 0.000000 2.412420
v -2.767821 0.000000 -2.412421
v 2.767823 2.000000 -2.412419
v 2.767820 2.000000 2.412422
v -2.767823 2.000000 2.412420
v -2.767822 2.000000 -2.412421
v 2.767822 0.000000 -1.055557
v 2.767822 2.000000 -1.055558
v 2.767822 0.000000 -2.412420
v 2.767823 2.000000 -2.412419
v 2.767822 0.000000 -1.055557
v 2.767822 2.000000 -1.055558
v 3.528297 -0.000000 -1.055557
v 3.528297 -0.000000 -2.412420
v 3.528297 2.000000 -1.055558
v 3.528298 2.000000 -2.412419
v 0.985795 2.000000 2.412421
v 0.985794 0.000000 2.412420
v 2.767822 0.000000 2.412421
v 2.767820 2.000000 2.412422
v 0.985795 2.000000 2.412421
v 0.985794 0.000000 2.412420
v 2.767821 -0.000001 5.222573
v 2.767819 1.999999 5.222575
v 0.985794 1.999999 5.222574
v 0.985793 -0.000001 5.222573
v 2.767822 -0.000000 3.321368
v 2.767820 2.000000 3.321368
v 0.985795 2.000000 3.321368
v 0.985794 -0.000000 3.321368
v 3.525255 -0.000000 5.222573
v 3.525254 2.000000 5.222575
v 3.525256 0.000001 3.321369
v 3.525254 2.000001 3.321369
v -0.017805 -0.000001 5.222572
v -0.017804 1.999999 5.222573
v -0.017804 2.000000 3.321368
v -0.017805 -0.000000 3.321368
vt 0.442383 0.977757
vt 0.562896 0.977757
vt 0.567778 0.918187
vt 0.447266 0.918187
vt 0.389253 0.918187
vt 0.397065 0.962132
vt 0.463601 0.091683
vt 0.543661 0.046672
vt 0.514440 0.020992
vt 0.472096 0.021703
vt 0.289723 0.031004
vt 0.343236 0.072976
vt 1.000000 -0.000000
vt 1.000000 1.000000
vt 0.000000 1.000000
vt -0.000000 0.000000
vt 0.000000 0.000000
vt 1.000000 0.000000
vt 1.000000 1.000000
vt 0.000000 1.000000
vt -0.000000 1.000000
vt 0.000000 -0.000000
vt 1.000000 0.000000
vt 1.000000 1.000000
vt 1.000000 -0.000000
vt 1.000000 1.000000
vt 0.000000 1.000000
vt -0.000000 0.000000
vt -0.000000 1.000000
vt 0.000000 -0.000000
vt 1.000000 0.000000
vt 1.000000 1.000000
vt -0.000000 1.000000
vt 0.000000 -0.000000
vt 1.000000 0.000000
vt 1.000000 1.000000
vt 0.000000 0.000000
vt 1.000000 0.000000
vt 1.000000 1.000000
vt 0.000000 1.000000
vt 0.161365 0.918621
vt 0.348865 0.918621
vt 0.350818 0.975261
vt 0.163318 0.975261
vt 0.000000 0.000000
vt 1.000000 0.000000
vt 1.000000 1.000000
vt 0.000000 1.000000
vt 0.687500 0.029297
vt 0.750000 0.029297
vt 0.750000 0.062500
vt 0.687500 0.062500
vt 1.000000 1.000000
vt 0.000000 1.000000
vt 0.000000 0.000000
vt 1.000000 0.000000
vt 0.243164 0.022338
vt 0.508588 0.027904
vt 0.508588 0.039247
vt 0.249023 0.047852
vt -0.000000 1.000000
vt 1.000000 0.000000
vt 1.000000 1.000000
vt 0.000000 0.000000
vt 1.000000 0.000000
vt 1.000000 1.000000
vt 0.000000 1.000000
vt 0.000000 0.000000
vt 1.000000 0.000000
vt 1.000000 1.000000
vt 0.000000 1.000000
vt 0.000000 0.000000
vt 1.000000 1.000000
vt 0.000000 1.000000
vt -0.000000 1.000000
vt 0.000000 -0.000000
vt 1.000000 0.000000
vt 1.000000 1.000000
vt 0.280475 0.937346
vt 0.467975 0.937346
vt 0.469928 0.969573
vt 0.282428 0.969573
vt 0.000000 -0.000000
vt 1.000000 0.000000
vt 1.000000 1.000000
vt 1.000000 -0.000000
vt 0.000000 1.000000
vt -0.000000 0.000000
vt 0.533606 0.941099
vt 0.723431 0.936448
vt 0.724982 0.965263
vt 0.537482 0.965263
vt 0.252930 0.029297
vt 0.497736 0.021703
vt 0.469833 0.051649
vt 0.221680 0.049805
vt 1.000000 -0.000000
vt 1.000000 1.000000
vt 0.000000 1.000000
vt -0.000000 0.000000
vt 0.250977 0.033203
vt 0.431078 0.059400
vt 0.187500 0.052734
vt -0.000000 1.000000
vt 0.000000 -0.000000
vt 1.000000 0.000000
vt 1.000000 1.000000
vt 0.488435 0.015502
vt 0.493086 0.056299
vt 0.270508 0.041016
vt -0.000000 1.000000
vt 0.000000 -0.000000
vt 1.000000 0.000000
vt 1.000000 1.000000
vt 0.533606 0.915520
vt 0.725989 0.978997
vt 0.538489 0.978997
vt 1.000000 -0.000000
vt 1.000000 1.000000
vt 0.000000 1.000000
vt -0.000000 0.000000
vt 1.000000 -0.000000
vt 1.000000 1.000000
vt 0.000000 1.000000
vt -0.000000 0.000000
vt 0.718781 0.920171
vt 0.718781 0.974858
vt 0.531281 0.974858
vt -0.000000 1.000000
vt 0.000000 -0.000000
vt 1.000000 0.000000
vt 1.000000 1.000000
vn 0.0000 -1.0000 0.0000
vn 0.0000 1.0000 -0.0000
vn -0.0000 0.0000 1.0000
vn -1.0000 -0.0000 -0.0000
vn 0.0000 0.0000 -1.0000
vn 1.0000 0.0000 0.0000
usemtl Material
s off
f 1/1/1 9/2/1 2/3/1 20/4/1 3/5/1 4/6/1
f 5/7/2 8/8/2 7/9/2 19/10/2 6/11/2 10/12/2
f 14/13/3 13/14/3 15/15/3 17/16/3
f 19/17/3 20/18/3 24/19/3 23/20/3
f 3/21/4 7/22/4 8/23/4 4/24/4
f 5/25/5 1/26/5 4/27/5 8/28/5
f 11/29/5 12/30/5 18/31/5 16/32/5
f 9/33/6 10/34/6 6/35/6 2/36/6
f 5/37/3 10/38/3 14/39/3 12/40/3
f 13/41/1 11/42/1 16/43/1 15/44/1
f 9/45/3 1/46/3 11/47/3 13/48/3
f 12/49/2 14/50/2 17/51/2 18/52/2
f 15/53/6 16/54/6 18/55/6 17/56/6
f 22/57/2 23/58/2 31/59/2 30/60/2
f 20/61/3 19/17/3 7/62/3 3/63/3
f 6/64/3 19/65/3 23/66/3 22/67/3
f 20/68/3 2/69/3 21/70/3 24/71/3
f 2/72/3 6/35/3 22/73/3 21/74/3
f 25/75/3 26/76/3 27/77/3 28/78/3
f 24/79/1 21/80/1 29/81/1 32/82/1
f 21/74/6 22/83/6 30/84/6 29/85/6
f 23/86/4 24/19/4 32/87/4 31/88/4
f 32/89/1 29/90/1 25/91/1 28/92/1
f 30/93/2 31/94/2 27/95/2 26/96/2
f 26/97/3 25/98/3 33/99/3 34/100/3
f 27/101/2 31/94/2 39/102/2 38/103/2
f 35/104/6 36/105/6 34/106/6 33/107/6
f 30/93/2 26/108/2 34/109/2 36/110/2
f 29/111/5 30/112/5 36/113/5 35/114/5
f 25/115/1 29/90/1 35/116/1 33/117/1
f 39/118/4 40/119/4 37/120/4 38/121/4
f 31/122/5 32/123/5 40/124/5 39/125/5
f 32/89/1 28/126/1 37/127/1 40/128/1
f 28/129/3 27/130/3 38/131/3 37/132/3
