# Blender v2.79 (sub 0) OBJ File: 'GTMWTexture.blend'
# www.blender.org
mtllib GTMWTexture.mtl
o Cube
v 1.930901 0.151476 -1.845155
v 1.930901 0.151476 1.845155
v -1.930901 0.151476 1.845155
v -1.930900 0.151476 -1.845156
v 1.930902 1.489779 -1.845154
v 1.930900 1.489779 1.845156
v -1.930902 1.489779 1.845155
v -1.930901 1.489779 -1.845155
v 1.930901 0.151476 -0.615052
v 1.930901 0.151476 0.615052
v 1.046763 0.151476 -1.845156
v -1.098585 0.151476 -1.845156
v 1.930901 0.597577 -1.845155
v 1.930902 1.043678 -1.845155
v 1.046762 0.151476 1.845155
v -1.098585 0.151476 1.845155
v 1.930901 0.597577 1.845156
v 1.930900 1.043678 1.845156
v -1.930901 0.151476 0.615051
v -1.930901 0.151476 -0.615052
v -1.930902 0.597577 1.845155
v -1.930902 1.043678 1.845155
v -1.930901 0.597577 -1.845156
v -1.930901 1.043678 -1.845156
v 1.930901 1.489779 -0.615051
v 1.930901 1.489779 0.615053
v 1.046763 1.489779 -1.845155
v -1.098585 1.489779 -1.845155
v 1.046761 1.489779 1.845156
v -1.098586 1.489779 1.845155
v -1.930902 1.489779 0.615051
v -1.930901 1.489779 -0.615052
v 1.046762 1.499766 -0.615051
v 1.046762 1.499766 0.615052
v -1.098585 1.499766 -0.615052
v -1.098586 1.499766 0.615052
v 1.046763 0.151476 -0.615052
v -1.098585 0.151476 -0.615052
v 1.046762 0.151476 0.615052
v -1.098585 0.151476 0.615052
vt 0.215583 0.999900
vt 0.000101 0.999900
vt 0.000100 0.666633
vt 0.000100 0.333367
vt 0.000100 0.000100
vt 0.215582 0.000100
vt 0.771001 0.000100
vt 0.999900 0.000100
vt 0.999900 0.333366
vt 0.999900 0.666633
vt 0.999900 0.999899
vt 0.771001 0.999899
vt 0.666633 0.000100
vt 0.999900 0.000100
vt 0.999900 0.333367
vt 0.999900 0.666633
vt 0.999900 0.999900
vt 0.666633 0.999900
vt 0.333367 0.999900
vt 0.000100 0.999900
vt 0.000100 0.666633
vt 0.000100 0.333367
vt 0.000100 0.000100
vt 0.333367 0.000100
vt 0.784418 0.000100
vt 0.999900 0.000100
vt 0.999900 0.333367
vt 0.999900 0.666633
vt 0.999900 0.999900
vt 0.784418 0.999900
vt 0.228999 0.999900
vt 0.000100 0.999900
vt 0.000100 0.666633
vt 0.000100 0.333367
vt 0.000100 0.000100
vt 0.228999 0.000100
vt 0.246832 0.056741
vt 0.232322 0.021584
vt 0.658821 0.037209
vt 0.878288 0.068459
vt 0.921775 0.058694
vt 0.905511 0.095803
vt 0.834042 0.091739
vt 0.721509 0.103458
vt 0.000058 0.999942
vt 0.000058 0.000058
vt 0.330884 0.000058
vt 0.330884 0.999942
vt 0.000074 0.999926
vt 0.000074 0.000074
vt 0.551408 0.000074
vt 0.551408 0.999926
vt 0.000074 0.999926
vt 0.000074 0.000074
vt 0.551408 0.000074
vt 0.551408 0.999926
vt 0.000058 0.999942
vt 0.000058 0.000058
vt 0.330884 0.000058
vt 0.330884 0.999942
vt 0.666633 0.000100
vt 0.999900 0.000100
vt 0.999900 0.333367
vt 0.999900 0.666633
vt 0.999900 0.999900
vt 0.666633 0.999900
vt 0.333367 0.999900
vt 0.000100 0.999900
vt 0.000100 0.666633
vt 0.000100 0.333367
vt 0.000100 0.000100
vt 0.333367 0.000100
vt 0.412102 0.037508
vt 0.398863 0.095330
vt 0.430748 0.095330
vt 0.444223 0.037508
vt 0.564541 0.023836
vt 0.532420 0.023836
vt 0.519956 0.081659
vt 0.551841 0.081659
vt 0.246194 0.025491
vt 0.584602 0.009866
vt 0.784539 0.013772
vt 0.878806 0.021584
vt 0.751470 0.048928
vt 0.609432 0.087833
vt 0.419996 0.072192
vt 0.332514 0.046975
vt 0.845220 0.913962
vt 0.890525 0.898337
vt 0.074319 0.913962
vt 0.303217 0.913962
vt 0.449953 0.903232
vt 0.463188 0.960023
vt 0.494505 0.960023
vt 0.481501 0.903232
vt 0.519564 0.903232
vt 0.488015 0.903232
vt 0.500488 0.960023
vt 0.531805 0.960023
vt 0.337991 0.978416
vt 0.340583 0.951072
vt 0.766840 0.962791
vt 0.859275 0.980369
vn 0.0000 0.0000 -1.0000
vn -1.0000 -0.0000 -0.0000
vn -0.0000 -0.0000 1.0000
vn -0.0080 1.0000 0.0000
vn 1.0000 0.0000 0.0000
vn -0.0000 1.0000 0.0081
vn 0.0000 1.0000 -0.0081
vn 0.0075 1.0000 -0.0000
vn 0.0000 -1.0000 0.0000
usemtl Material
s off
f 12/1/1 4/2/1 23/3/1 24/4/1 8/5/1 28/6/1 27/7/1 5/8/1 14/9/1 13/10/1 1/11/1 11/12/1
f 32/13/2 8/14/2 24/15/2 23/16/2 4/17/2 20/18/2 19/19/2 3/20/2 21/21/2 22/22/2 7/23/2 31/24/2
f 30/25/3 7/26/3 22/27/3 21/28/3 3/29/3 16/30/3 15/31/3 2/32/3 17/33/3 18/34/3 6/35/3 29/36/3
f 28/37/4 8/38/4 32/39/4 31/40/4 7/41/4 30/42/4 36/43/4 35/44/4
f 36/45/5 40/46/5 38/47/5 35/48/5
f 34/49/1 39/50/1 40/51/1 36/52/1
f 35/53/3 38/54/3 37/55/3 33/56/3
f 33/57/2 37/58/2 39/59/2 34/60/2
f 26/61/5 6/62/5 18/63/5 17/64/5 2/65/5 10/66/5 9/67/5 1/68/5 13/69/5 14/70/5 5/71/5 25/72/5
f 29/73/6 34/74/6 36/75/6 30/76/6
f 27/77/7 28/78/7 35/79/7 33/80/7
f 6/81/8 26/82/8 25/83/8 5/84/8 27/85/8 33/86/8 34/87/8 29/88/8
f 11/89/9 1/90/9 2/91/9 15/92/9
f 16/93/9 40/94/9 39/95/9 15/96/9
f 12/97/9 11/98/9 37/99/9 38/100/9
f 4/101/9 12/102/9 16/103/9 3/104/9
l 11 27
l 12 28
l 16 30
l 15 29
