# Blender v2.79 (sub 0) OBJ File: 'keeny.blend'
# www.blender.org
mtllib keenyWTexture.mtl
o Cube
v 3.458552 -0.120138 -1.997588
v 3.458552 -0.120138 1.997588
v -3.458553 -0.120138 1.997588
v -3.458551 -0.120138 -1.997589
v 3.458554 1.879862 -1.997587
v 3.458550 1.879862 1.997589
v -3.458554 1.879862 1.997587
v -3.458552 1.879862 -1.997588
vt 0.406680 0.897565
vt 0.485247 0.897565
vt 0.485247 0.976133
vt 0.406680 0.976133
vt 0.486827 0.033355
vt 0.486827 0.079926
vt 0.440256 0.079926
vt 0.440256 0.033355
vt -0.007809 1.004554
vt -0.007809 -0.003251
vt 0.999996 -0.003251
vt 0.999996 1.004554
vt 0.001831 1.003378
vt 0.001831 0.005737
vt 0.999471 0.005737
vt 0.999471 1.003377
vt -0.002210 1.006116
vt -0.002210 0.002999
vt 1.000908 0.002998
vt 1.000908 1.006116
vt 1.003101 -0.003101
vt 1.003101 1.003101
vt -0.003101 1.003101
vt -0.003101 -0.003101
vn 0.0000 -1.0000 0.0000
vn 0.0000 1.0000 0.0000
vn 1.0000 0.0000 0.0000
vn -0.0000 -0.0000 1.0000
vn -1.0000 -0.0000 -0.0000
vn 0.0000 0.0000 -1.0000
usemtl Material
s off
f 1/1/1 2/2/1 3/3/1 4/4/1
f 5/5/2 8/6/2 7/7/2 6/8/2
f 1/9/3 5/10/3 6/11/3 2/12/3
f 2/13/4 6/14/4 7/15/4 3/16/4
f 3/17/5 7/18/5 8/19/5 4/20/5
f 5/21/6 1/22/6 4/23/6 8/24/6
