# Blender v2.79 (sub 0) OBJ File: 'wylyWTexture.blend'
# www.blender.org
mtllib wylyWTexture.mtl
o Cube
v 1.858531 0.025347 -1.078865
v 1.858531 0.025347 2.315550
v -1.535885 0.025347 2.315550
v -1.535884 0.025347 -1.078866
v 1.858531 9.665222 -1.078865
v 1.858530 9.665222 2.315551
v -1.535886 9.665222 2.315549
v -1.535885 9.665222 -1.078866
vt 0.220298 0.884504
vt 0.319741 0.884504
vt 0.319741 0.983947
vt 0.220298 0.983947
vt 0.548043 0.093233
vt 0.548043 0.035674
vt 0.605603 0.035674
vt 0.605603 0.093233
vt 0.001884 0.996813
vt 0.001885 0.000583
vt 0.998115 0.000583
vt 0.998115 0.996813
vt -0.000008 0.999988
vt -0.000599 -0.000354
vt 1.000450 -0.000086
vt 0.999912 0.999988
vt -0.000030 1.000006
vt 0.000009 -0.000011
vt 0.999969 0.000030
vt 0.999995 0.999956
vt 0.999379 0.000622
vt 0.999378 0.999379
vt 0.000622 0.999378
vt 0.000622 0.000622
vn 0.0000 -1.0000 0.0000
vn 0.0000 1.0000 0.0000
vn 1.0000 0.0000 0.0000
vn -0.0000 -0.0000 1.0000
vn -1.0000 -0.0000 -0.0000
vn 0.0000 0.0000 -1.0000
usemtl Material
s off
f 1/1/1 2/2/1 3/3/1 4/4/1
f 5/5/2 8/6/2 7/7/2 6/8/2
f 1/9/3 5/10/3 6/11/3 2/12/3
f 2/13/4 6/14/4 7/15/4 3/16/4
f 3/17/5 7/18/5 8/19/5 4/20/5
f 5/21/6 1/22/6 4/23/6 8/24/6
