# Blender v2.79 (sub 0) OBJ File: 'bogard2.blend'
# www.blender.org
mtllib bogard2.mtl
o Cube
v 2.545533 0.250348 -2.380047
v 2.545533 0.250348 2.182010
v -2.545533 0.250348 2.182009
v -2.545532 0.250348 -2.380048
v 2.545534 2.250348 -2.380046
v 2.545532 2.250348 2.182011
v -2.545534 2.250348 2.182009
v -2.545533 2.250348 -2.380047
v 2.545533 0.250348 -0.859362
v 0.848511 0.250348 2.182009
v 2.545533 2.250348 -0.859361
v 0.848509 2.250348 2.182010
v 3.430284 0.250347 -2.380047
v 3.430285 2.250347 -2.380046
v 3.430284 0.250347 -0.859361
v 3.430284 2.250347 -0.859360
v 0.848511 0.250347 3.122683
v 0.848509 2.250347 3.115047
v 2.545533 0.250347 3.073642
v 2.545531 2.250347 3.071897
v 0.848510 0.917014 3.120137
v 3.433905 0.250347 3.992744
v 0.848510 1.583681 3.117593
v 3.433905 0.250348 3.073643
v 3.433903 2.250348 3.071898
v 3.433903 2.250347 4.961346
v 3.433905 0.250347 4.961345
v -0.070103 2.250347 3.115047
v -0.070102 0.250346 4.961343
v -0.070103 2.250346 4.961343
v -0.070101 0.250347 3.122683
v -2.545533 2.250348 -0.956077
v -2.545532 0.250348 -0.936804
v 0.859928 2.250346 4.961344
v 2.521261 2.250346 4.961345
v 2.527798 0.250346 4.961344
v 0.845384 0.250346 4.961343
v 0.870301 0.250348 -0.884844
v 0.880925 0.250348 -2.380048
v 0.866139 2.250348 -2.380047
v 0.860386 2.250348 -0.891374
vn -0.0000 -0.0000 1.0000
vn -1.0000 -0.0000 -0.0000
vn 1.0000 -0.0000 0.0000
vn 0.0000 -1.0000 -0.0000
vn 0.0000 -0.0038 -1.0000
vn 0.0000 -0.0009 -1.0000
vn 0.0000 0.0000 -1.0000
vn 0.0000 1.0000 -0.0000
usemtl Material
s off
f 7//1 3//1 10//1 12//1
f 12//2 10//2 17//2 21//2 23//2 18//2
f 13//3 14//3 16//3 15//3
f 3//4 33//4 38//4 10//4
f 8//2 4//2 33//2 32//2
f 21//5 17//5 31//5 28//5 18//5 23//5
f 11//1 9//1 15//1 16//1
f 6//3 20//3 19//3 2//3 9//3 11//3
f 20//6 25//6 24//6 19//6
f 4//7 8//7 40//7 39//7
f 29//2 30//2 28//2 31//2
f 30//1 29//1 37//1 34//1
f 26//3 27//3 22//3 24//3 25//3
f 7//8 12//8 41//8 32//8
f 32//8 41//8 40//8 8//8
f 9//4 38//4 39//4 1//4 13//4 15//4
f 32//2 33//2 3//2 7//2
f 34//8 18//8 28//8 30//8
f 20//8 35//8 26//8 25//8
f 35//1 36//1 27//1 26//1
f 34//1 37//1 36//1 35//1
f 36//4 19//4 24//4 22//4 27//4
f 10//4 38//4 9//4 2//4 19//4 36//4 37//4 29//4 31//4 17//4
f 39//4 38//4 33//4 4//4
f 40//8 41//8 11//8 16//8 14//8 5//8
f 39//7 40//7 5//7 14//7 13//7 1//7
f 41//8 12//8 18//8 34//8 35//8 20//8 6//8 11//8
l 2 6
l 1 5
l 18 20
l 6 12
l 5 11
l 17 19
l 2 10
l 1 9
l 17 37
