# Blender v2.79 (sub 0) OBJ File: 'engineeringAnnex.blend'
# www.blender.org
mtllib engineeringAnnex.mtl
o Cube
v 1.000000 0.000000 -4.000000
v 1.000000 0.000000 -2.000000
v -1.000000 0.000000 -2.000000
v -1.000000 0.000000 -4.000000
v 1.000000 2.000000 -4.000000
v 0.999999 2.000000 -1.999999
v -1.000000 2.000000 -2.000000
v -1.000000 2.000000 -4.000000
v 0.999999 -0.000000 0.000000
v -1.000001 -0.000000 -0.000000
v 0.999999 2.000000 0.000000
v -1.000001 2.000000 -0.000000
v 0.999999 -0.000000 2.000000
v -1.000001 -0.000000 2.000000
v 0.999998 2.000000 2.000000
v -1.000002 2.000000 2.000000
v 0.999998 -0.000000 4.000000
v -1.000002 -0.000000 4.000000
v 0.999998 2.000000 4.000000
v -1.000002 2.000000 4.000000
vn 0.0000 -1.0000 0.0000
vn 0.0000 1.0000 0.0000
vn 1.0000 0.0000 0.0000
vn -1.0000 -0.0000 -0.0000
vn 0.0000 0.0000 -1.0000
vn -0.0000 -0.0000 1.0000
usemtl Material
s off
f 1//1 2//1 3//1 4//1
f 5//2 8//2 7//2 6//2
f 1//3 5//3 6//3 2//3
f 6//2 7//2 12//2 11//2
f 3//4 7//4 8//4 4//4
f 5//5 1//5 4//5 8//5
f 11//2 12//2 16//2 15//2
f 7//4 3//4 10//4 12//4
f 2//3 6//3 11//3 9//3
f 3//1 2//1 9//1 10//1
f 13//3 15//3 19//3 17//3
f 9//3 11//3 15//3 13//3
f 12//4 10//4 14//4 16//4
f 10//1 9//1 13//1 14//1
f 17//6 19//6 20//6 18//6
f 16//4 14//4 18//4 20//4
f 14//1 13//1 17//1 18//1
f 15//2 16//2 20//2 19//2
