# Blender v2.79 (sub 0) OBJ File: 'howard.blend'
# www.blender.org
mtllib howard.mtl
o Cube
v 2.000000 0.000000 -1.000000
v 2.000000 0.000000 1.000000
v 2.000000 2.000000 -0.999999
v 1.999999 2.000000 1.000001
v 1.999999 -0.000000 3.000000
v 1.999999 2.000000 3.000000
v 1.999999 -0.000000 5.000000
v 1.999998 2.000000 5.000000
v 5.000000 0.000001 3.000001
v 4.999999 2.000000 3.000001
v 4.999999 0.000001 5.000001
v 4.999998 2.000000 5.000001
v 3.000000 0.000000 3.000000
v 4.000000 0.000000 3.000000
v 3.999999 0.000000 5.000000
v 2.999999 0.000000 5.000000
v 2.999999 2.000000 3.000001
v 3.999999 2.000000 3.000001
v 2.999998 2.000000 5.000001
v 3.999998 2.000000 5.000001
v 5.000000 0.000001 2.000001
v 4.999999 2.000001 2.000001
v 3.000000 0.000000 2.000000
v 4.000000 0.000001 2.000000
v 2.999999 2.000000 2.000001
v 3.999999 2.000000 2.000001
v 4.999999 0.000000 6.000001
v 4.999998 2.000000 6.000001
v 3.999999 -0.000000 6.000000
v 2.999999 -0.000000 6.000000
v 2.999998 2.000000 6.000001
v 3.999998 2.000000 6.000001
v 2.000000 0.000000 -3.000000
v 2.000001 2.000000 -3.000000
v 1.000000 0.000000 -1.000000
v 1.000000 0.000000 1.000000
v 1.000000 2.000000 -1.000000
v 0.999999 2.000000 1.000000
v 0.999999 -0.000000 3.000000
v 0.999999 2.000000 3.000000
v 0.999999 -0.000000 5.000000
v 0.999998 2.000000 5.000000
v 1.000001 0.000000 -3.000000
v 1.000001 2.000000 -3.000000
v 1.000001 0.000001 -4.000000
v 1.000001 2.000001 -4.000000
v -2.000000 0.000000 -1.000000
v -2.000000 0.000000 1.000000
v 0.000000 0.000000 1.000000
v 0.000000 0.000000 -1.000000
v -2.000000 2.000000 -0.999999
v -1.999999 2.000000 1.000001
v 0.000000 2.000000 1.000000
v 0.000000 2.000000 -1.000000
v -1.999999 -0.000000 3.000000
v 0.000000 -0.000000 3.000000
v -1.999999 2.000000 3.000000
v 0.000000 2.000000 3.000000
v -1.999999 -0.000000 5.000000
v 0.000000 -0.000000 5.000000
v -1.999998 2.000000 5.000000
v 0.000000 2.000000 5.000000
v -5.000000 0.000001 3.000001
v -4.999999 2.000000 3.000001
v -4.999999 0.000001 5.000001
v -4.999998 2.000000 5.000001
v -3.000000 0.000000 3.000000
v -4.000000 0.000000 3.000000
v -3.999999 0.000000 5.000000
v -2.999999 0.000000 5.000000
v -2.999999 2.000000 3.000001
v -3.999999 2.000000 3.000001
v -2.999998 2.000000 5.000001
v -3.999998 2.000000 5.000001
v -5.000000 0.000001 2.000001
v -4.999999 2.000001 2.000001
v -3.000000 0.000000 2.000000
v -4.000000 0.000001 2.000000
v -2.999999 2.000000 2.000001
v -3.999999 2.000000 2.000001
v -4.999999 0.000000 6.000001
v -4.999998 2.000000 6.000001
v -3.999999 -0.000000 6.000000
v -2.999999 -0.000000 6.000000
v -2.999998 2.000000 6.000001
v -3.999998 2.000000 6.000001
v -2.000000 0.000000 -3.000000
v 0.000000 0.000000 -3.000000
v -2.000001 2.000000 -3.000000
v 0.000000 2.000000 -3.000000
v -1.000000 0.000000 -1.000000
v -1.000000 0.000000 1.000000
v -1.000000 2.000000 -1.000000
v -0.999999 2.000000 1.000000
v -0.999999 -0.000000 3.000000
v -0.999999 2.000000 3.000000
v -0.999999 -0.000000 5.000000
v -0.999998 2.000000 5.000000
v -1.000001 0.000000 -3.000000
v -1.000001 2.000000 -3.000000
v 0.000000 0.000000 -2.000000
v 0.000000 0.000001 -4.000000
v 0.000000 2.000001 -4.000000
v -1.000001 0.000001 -4.000000
v -1.000001 2.000001 -4.000000
vn 0.0000 -1.0000 0.0000
vn 0.0000 1.0000 0.0000
vn 1.0000 0.0000 0.0000
vn 0.0000 0.0000 1.0000
vn 0.0000 0.0000 -1.0000
vn -1.0000 -0.0000 -0.0000
usemtl Material
s off
f 35//1 36//1 49//1 50//1
f 37//2 54//2 53//2 38//2
f 1//3 3//3 4//3 2//3
f 3//3 1//3 33//3 34//3
f 40//2 58//2 62//2 42//2
f 2//3 4//3 6//3 5//3
f 36//1 2//1 5//1 39//1
f 38//2 53//2 58//2 40//2
f 41//4 42//4 62//4 60//4
f 15//1 14//1 9//1 11//1
f 39//1 5//1 7//1 41//1
f 9//3 10//3 12//3 11//3
f 10//3 9//3 21//3 22//3
f 18//2 20//2 12//2 10//2
f 12//2 20//2 32//2 28//2
f 8//4 7//4 16//4 19//4
f 16//1 15//1 29//1 30//1
f 6//2 8//2 19//2 17//2
f 17//2 19//2 20//2 18//2
f 5//5 6//5 17//5 13//5
f 17//2 18//2 26//2 25//2
f 7//1 5//1 13//1 16//1
f 16//1 13//1 14//1 15//1
f 24//5 26//5 22//5 21//5
f 23//5 25//5 26//5 24//5
f 13//6 17//6 25//6 23//6
f 14//1 13//1 23//1 24//1
f 18//2 10//2 22//2 26//2
f 9//1 14//1 24//1 21//1
f 32//4 29//4 27//4 28//4
f 31//4 30//4 29//4 32//4
f 19//6 16//6 30//6 31//6
f 11//3 12//3 28//3 27//3
f 15//1 11//1 27//1 29//1
f 20//2 19//2 31//2 32//2
f 44//3 43//3 45//3 46//3
f 37//2 3//2 34//2 44//2
f 35//1 50//1 88//1 43//1
f 1//1 35//1 43//1 33//1
f 54//2 37//2 44//2 90//2
f 34//5 33//5 43//5 44//5
f 56//1 39//1 41//1 60//1
f 7//4 8//4 42//4 41//4
f 4//2 38//2 40//2 6//2
f 49//1 36//1 39//1 56//1
f 6//2 40//2 42//2 8//2
f 3//2 37//2 38//2 4//2
f 1//1 2//1 36//1 35//1
f 46//5 45//5 102//5 103//5
f 90//2 44//2 46//2 103//2
f 43//1 88//1 102//1 45//1
f 91//1 50//1 49//1 92//1
f 93//2 94//2 53//2 54//2
f 47//6 48//6 52//6 51//6
f 53//3 58//3 56//3 49//3
f 49//3 50//3 54//3 53//3
f 51//6 89//6 87//6 47//6
f 96//2 98//2 62//2 58//2
f 48//6 55//6 57//6 52//6
f 92//1 95//1 55//1 48//1
f 94//2 96//2 58//2 53//2
f 97//4 60//4 62//4 98//4
f 69//1 65//1 63//1 68//1
f 58//3 62//3 60//3 56//3
f 95//1 97//1 59//1 55//1
f 63//6 65//6 66//6 64//6
f 64//6 76//6 75//6 63//6
f 72//2 64//2 66//2 74//2
f 66//2 82//2 86//2 74//2
f 61//4 73//4 70//4 59//4
f 70//1 84//1 83//1 69//1
f 57//2 71//2 73//2 61//2
f 71//2 72//2 74//2 73//2
f 55//5 67//5 71//5 57//5
f 71//2 79//2 80//2 72//2
f 59//1 70//1 67//1 55//1
f 70//1 69//1 68//1 67//1
f 78//5 75//5 76//5 80//5
f 77//5 78//5 80//5 79//5
f 67//3 77//3 79//3 71//3
f 68//1 78//1 77//1 67//1
f 72//2 80//2 76//2 64//2
f 63//1 75//1 78//1 68//1
f 86//4 82//4 81//4 83//4
f 85//4 86//4 83//4 84//4
f 73//3 85//3 84//3 70//3
f 65//6 81//6 82//6 66//6
f 69//1 83//1 81//1 65//1
f 74//2 86//2 85//2 73//2
f 100//6 105//6 104//6 99//6
f 93//2 100//2 89//2 51//2
f 50//3 88//3 90//3 54//3
f 91//1 99//1 88//1 50//1
f 47//1 87//1 99//1 91//1
f 54//2 90//2 100//2 93//2
f 89//5 100//5 99//5 87//5
f 56//1 60//1 97//1 95//1
f 59//4 97//4 98//4 61//4
f 52//2 57//2 96//2 94//2
f 49//1 56//1 95//1 92//1
f 57//2 61//2 98//2 96//2
f 51//2 52//2 94//2 93//2
f 47//1 91//1 92//1 48//1
f 105//5 103//5 102//5 104//5
f 88//3 102//3 101//3 50//3
f 90//2 103//2 105//2 100//2
f 88//3 102//3 103//3 90//3
f 99//1 104//1 102//1 88//1
