# Blender v2.79 (sub 0) OBJ File: ''
# www.blender.org
mtllib testbuilding3.mtl
o Cone
v 0.996534 0.286906 2.693837
v 1.716595 0.357826 2.693837
v 2.408984 0.567860 2.693837
v 3.047093 0.908936 2.693837
v 3.606400 1.367948 2.693837
v 4.065412 1.927255 2.693837
v 4.406488 2.565364 2.693837
v 4.616522 3.257753 2.693837
v 4.687442 3.977813 2.693837
v 4.616522 4.697873 2.693837
v 4.406488 5.390262 2.693837
v 4.065412 6.028372 2.693838
v 3.606400 6.587679 2.693838
v 3.047092 7.046691 2.693838
v 2.408983 7.387768 2.693838
v 1.716594 7.597801 2.693838
v 0.996533 7.668721 2.693838
v 0.276473 7.597801 2.693838
v -0.415916 7.387767 2.693838
v -1.054026 7.046690 2.693838
v -1.613333 6.587678 2.693838
v -2.072344 6.028370 2.693838
v -2.413421 5.390260 2.693837
v 0.996534 3.977814 -4.687978
v -2.623454 4.697871 2.693837
v -2.694373 3.977810 2.693837
v -2.623453 3.257749 2.693837
v -2.413418 2.565361 2.693837
v -2.072340 1.927251 2.693837
v -1.613328 1.367944 2.693837
v -1.054020 0.908933 2.693837
v -0.415910 0.567858 2.693837
v 0.276480 0.357825 2.693837
v 3.090938 1.884529 5.770913
v 3.090938 6.058868 5.770913
v -1.083402 6.058867 5.770913
v -1.083401 1.884528 5.770913
v 3.090939 1.884530 1.596574
v 3.090936 6.058869 1.596574
v -1.083403 6.058867 1.596574
v -1.083402 1.884529 1.596574
vn 0.0878 -0.8910 -0.4455
vn 0.2599 -0.8567 -0.4455
vn 0.4220 -0.7896 -0.4455
vn 0.5680 -0.6921 -0.4455
vn 0.6921 -0.5680 -0.4455
vn 0.7896 -0.4220 -0.4455
vn 0.8567 -0.2599 -0.4455
vn 0.8910 -0.0878 -0.4455
vn 0.8910 0.0878 -0.4455
vn 0.8567 0.2599 -0.4455
vn 0.7896 0.4220 -0.4455
vn 0.6921 0.5680 -0.4455
vn 0.5680 0.6921 -0.4455
vn 0.4220 0.7896 -0.4455
vn 0.2599 0.8567 -0.4455
vn 0.0878 0.8910 -0.4455
vn -0.0878 0.8910 -0.4455
vn -0.2599 0.8567 -0.4455
vn -0.4220 0.7896 -0.4455
vn -0.5680 0.6921 -0.4455
vn -0.6921 0.5680 -0.4455
vn -0.7896 0.4220 -0.4455
vn -0.8567 0.2599 -0.4455
vn -0.8910 0.0878 -0.4455
vn -0.8910 -0.0878 -0.4455
vn -0.8567 -0.2599 -0.4455
vn -0.7896 -0.4220 -0.4455
vn -0.6921 -0.5680 -0.4455
vn -0.5680 -0.6921 -0.4455
vn -0.4220 -0.7896 -0.4455
vn -0.2599 -0.8567 -0.4455
vn -0.0878 -0.8910 -0.4455
vn -0.0000 -0.0000 1.0000
vn -0.0000 0.0000 -1.0000
vn 1.0000 0.0000 -0.0000
vn -0.0000 1.0000 0.0000
vn -1.0000 -0.0000 0.0000
vn 0.0000 -1.0000 -0.0000
usemtl Material
s off
f 1//1 24//1 2//1
f 2//2 24//2 3//2
f 3//3 24//3 4//3
f 4//4 24//4 5//4
f 5//5 24//5 6//5
f 6//6 24//6 7//6
f 7//7 24//7 8//7
f 8//8 24//8 9//8
f 9//9 24//9 10//9
f 10//10 24//10 11//10
f 11//11 24//11 12//11
f 12//12 24//12 13//12
f 13//13 24//13 14//13
f 14//14 24//14 15//14
f 15//15 24//15 16//15
f 16//16 24//16 17//16
f 17//17 24//17 18//17
f 18//18 24//18 19//18
f 19//19 24//19 20//19
f 20//20 24//20 21//20
f 21//21 24//21 22//21
f 22//22 24//22 23//22
f 23//23 24//23 25//23
f 25//24 24//24 26//24
f 26//25 24//25 27//25
f 27//26 24//26 28//26
f 28//27 24//27 29//27
f 29//28 24//28 30//28
f 30//29 24//29 31//29
f 31//30 24//30 32//30
f 32//31 24//31 33//31
f 33//32 24//32 1//32
f 1//33 2//33 3//33 4//33 5//33 6//33 7//33 8//33 9//33 10//33 11//33 12//33 13//33 14//33 15//33 16//33 17//33 18//33 19//33 20//33 21//33 22//33 23//33 25//33 26//33 27//33 28//33 29//33 30//33 31//33 32//33 33//33
f 34//33 35//33 36//33 37//33
f 38//34 41//34 40//34 39//34
f 34//35 38//35 39//35 35//35
f 35//36 39//36 40//36 36//36
f 36//37 40//37 41//37 37//37
f 38//38 34//38 37//38 41//38
