# Blender v2.79 (sub 0) OBJ File: 'tolliver.blend'
# www.blender.org
mtllib tolliver.mtl
o Cube
v 1.000000 0.055556 -1.944445
v 1.000000 0.055556 0.055555
v -1.000000 0.055556 0.055555
v -1.000000 0.055556 -1.944445
v 1.000000 2.055556 -1.944444
v 0.999999 2.055556 0.055556
v -1.000000 2.055556 0.055555
v -1.000000 2.055556 -1.944444
v 0.999999 0.055555 2.055556
v -1.000001 0.055555 2.055555
v 0.999999 2.055555 2.055556
v -1.000001 2.055555 2.055555
v 0.999999 0.055555 4.055555
v -1.000001 0.055555 4.055555
v 0.999998 2.055555 4.055556
v -1.000002 2.055555 4.055555
v 0.000000 0.055556 -1.944445
v 0.000000 0.055556 0.055555
v 0.000000 2.055556 -1.944444
v -0.000001 2.055556 0.055556
v -0.000001 0.055555 2.055556
v -0.000001 2.055555 2.055556
v -0.000001 0.055555 4.055555
v -0.000002 2.055555 4.055555
v -0.999999 0.055556 -2.944445
v -1.000000 2.055556 -2.944444
v 0.000000 0.055556 -2.944444
v 0.000000 2.055556 -2.944444
v -2.000000 0.055556 -1.944445
v -2.000000 2.055556 -1.944445
v -1.999999 0.055556 -2.944445
v -2.000000 2.055556 -2.944445
v -1.000000 0.055556 -0.944445
v -1.000000 2.055556 -0.944445
v -2.000000 0.055555 -0.944445
v -2.000000 2.055555 -0.944445
vn 0.0000 -1.0000 -0.0000
vn -0.0000 1.0000 0.0000
vn 1.0000 0.0000 0.0000
vn -1.0000 -0.0000 -0.0000
vn 0.0000 0.0000 1.0000
vn 0.0000 0.0000 -1.0000
usemtl Material
s off
f 17//1 18//1 3//1 4//1
f 19//2 8//2 7//2 20//2
f 1//3 5//3 6//3 2//3
f 18//1 2//1 9//1 21//1
f 3//4 7//4 8//4 4//4
f 8//2 19//2 28//2 26//2
f 12//4 10//4 14//4 16//4
f 20//2 7//2 12//2 22//2
f 7//4 3//4 10//4 12//4
f 2//3 6//3 11//3 9//3
f 23//5 24//5 16//5 14//5
f 21//1 9//1 13//1 23//1
f 22//2 12//2 16//2 24//2
f 9//3 11//3 15//3 13//3
f 11//2 22//2 24//2 15//2
f 10//1 21//1 23//1 14//1
f 13//5 15//5 24//5 23//5
f 6//2 20//2 22//2 11//2
f 5//6 1//6 17//6 19//6
f 3//1 18//1 21//1 10//1
f 5//2 19//2 20//2 6//2
f 1//1 2//1 18//1 17//1
f 28//6 27//6 25//6 26//6
f 4//3 8//3 34//3 33//3
f 19//3 17//3 27//3 28//3
f 17//1 4//1 25//1 27//1
f 29//4 30//4 32//4 31//4
f 8//2 26//2 32//2 30//2
f 26//6 25//6 31//6 32//6
f 25//1 4//1 29//1 31//1
f 33//5 34//5 36//5 35//5
f 8//2 30//2 36//2 34//2
f 30//4 29//4 35//4 36//4
f 29//1 4//1 33//1 35//1
