# Blender v2.79 (sub 0) OBJ File: 'tolliver.blend'
# www.blender.org
mtllib tolliver.mtl
o Cube
v 1.000000 0.055556 -1.944445
v 1.000000 0.055556 0.055555
v -1.000000 0.055556 0.055555
v -1.000000 0.055556 -1.944445
v 1.000000 2.055556 -1.944444
v 0.999999 2.055556 0.055556
v -1.000000 2.055556 0.055555
v -1.000000 2.055556 -1.944444
v 0.999999 0.055555 2.055556
v -1.000001 0.055555 2.055555
v 0.999999 2.055555 2.055556
v -1.000001 2.055555 2.055555
v 0.999999 0.055555 4.055555
v -1.000001 0.055555 4.055555
v 0.999998 2.055555 4.055556
v -1.000002 2.055555 4.055555
v 0.000000 0.055556 -1.944445
v 0.000000 0.055556 0.055555
v 0.000000 2.055556 -1.944444
v -0.000001 2.055556 0.055556
v -0.000001 0.055555 2.055556
v -0.000001 2.055555 2.055556
v -0.000001 0.055555 4.055555
v -0.000002 2.055555 4.055555
v -0.999999 0.055556 -2.944445
v -1.000000 2.055556 -2.944444
v 0.000000 0.055556 -2.944444
v 0.000000 2.055556 -2.944444
v -2.000000 0.055556 -1.944445
v -2.000000 2.055556 -1.944445
v -1.999999 0.055556 -2.944445
v -2.000000 2.055556 -2.944445
v -1.000000 0.055556 -0.944445
v -1.000000 2.055556 -0.944445
v -2.000000 0.055555 -0.944445
v -2.000000 2.055555 -0.944445
vt 0.222370 0.221485
vt 0.222370 0.000443
vt 0.332891 0.000443
vt 0.332891 0.221485
vt 0.000443 0.221485
vt 0.110964 0.221485
vt 0.110964 0.000443
vt 0.000443 0.000443
vt 0.221485 0.554818
vt 0.221485 0.775860
vt 0.000443 0.775860
vt 0.000443 0.554818
vt 0.222370 0.997787
vt 0.111849 0.997787
vt 0.111849 0.776745
vt 0.222370 0.776745
vt 0.665339 0.443412
vt 0.444297 0.443412
vt 0.444297 0.664454
vt 0.665339 0.664454
vt 0.000443 0.332006
vt 0.110964 0.332006
vt 0.444297 0.886381
vt 0.665339 0.886381
vt 0.665339 0.665339
vt 0.444297 0.665339
vt 0.776745 0.110964
vt 0.776745 0.000443
vt 0.555703 0.000443
vt 0.555703 0.110964
vt 0.222370 0.553933
vt 0.443412 0.553933
vt 0.443412 0.332891
vt 0.222370 0.332891
vt 0.221485 0.332891
vt 0.221485 0.553933
vt 0.000443 0.553933
vt 0.000443 0.332891
vt 0.332891 0.775860
vt 0.332891 0.554818
vt 0.443412 0.554818
vt 0.443412 0.775860
vt 0.110964 0.997787
vt 0.000443 0.997787
vt 0.000443 0.776745
vt 0.110964 0.776745
vt 0.332891 0.775860
vt 0.443412 0.775860
vt 0.887266 0.664454
vt 0.666224 0.664454
vt 0.666224 0.443412
vt 0.887266 0.443412
vt 0.222370 0.775860
vt 0.222370 0.554818
vt 0.888151 0.221485
vt 0.777630 0.221485
vt 0.777630 0.000443
vt 0.888151 0.000443
vt 0.222370 0.775860
vt 0.776745 0.221485
vt 0.555703 0.221485
vt 0.444297 0.221485
vt 0.444297 0.442527
vt 0.554818 0.442527
vt 0.554818 0.221485
vt 0.776745 0.222370
vt 0.776745 0.332891
vt 0.555703 0.332891
vt 0.555703 0.222370
vt 0.554818 0.000443
vt 0.444297 0.000443
vt 0.223255 0.997787
vt 0.223255 0.776745
vt 0.333776 0.776745
vt 0.333776 0.997787
vt 0.666224 0.886381
vt 0.887266 0.886381
vt 0.887266 0.775860
vt 0.666224 0.775860
vt 0.998672 0.443412
vt 0.998672 0.664454
vt 0.888151 0.664454
vt 0.888151 0.443412
vt 0.666224 0.887266
vt 0.887266 0.887266
vt 0.887266 0.997787
vt 0.666224 0.997787
vt 0.332891 0.332006
vt 0.222370 0.332006
vt 0.999557 0.221485
vt 0.999557 0.000443
vt 0.889036 0.000443
vt 0.889036 0.221485
vt 0.221485 0.332006
vt 0.221485 0.221485
vt 0.887266 0.665339
vt 0.666224 0.665339
vt 0.443412 0.221485
vt 0.443412 0.332006
vt 0.888151 0.886381
vt 0.888151 0.665339
vt 0.998672 0.665339
vt 0.998672 0.886381
vt 0.221485 0.110964
vt 0.110964 0.110964
vt 0.665339 0.887266
vt 0.444297 0.887266
vt 0.444297 0.997787
vt 0.665339 0.997787
vt 0.888151 0.332891
vt 0.777630 0.332891
vt 0.777630 0.222370
vt 0.888151 0.222370
vn 0.0000 -1.0000 -0.0000
vn -0.0000 1.0000 0.0000
vn 1.0000 0.0000 0.0000
vn -1.0000 -0.0000 -0.0000
vn 0.0000 0.0000 1.0000
vn 0.0000 0.0000 -1.0000
usemtl Material
s off
f 17/1/1 18/2/1 3/3/1 4/4/1
f 19/5/2 8/6/2 7/7/2 20/8/2
f 1/9/3 5/10/3 6/11/3 2/12/3
f 18/13/1 2/14/1 9/15/1 21/16/1
f 3/17/4 7/18/4 8/19/4 4/20/4
f 8/6/2 19/5/2 28/21/2 26/22/2
f 12/23/4 10/24/4 14/25/4 16/26/4
f 20/27/2 7/28/2 12/29/2 22/30/2
f 7/31/4 3/32/4 10/33/4 12/34/4
f 2/35/3 6/36/3 11/37/3 9/38/3
f 23/39/5 24/40/5 16/41/5 14/42/5
f 21/43/1 9/44/1 13/45/1 23/46/1
f 22/47/2 12/48/2 16/41/2 24/40/2
f 9/49/3 11/50/3 15/51/3 13/52/3
f 11/53/2 22/47/2 24/40/2 15/54/2
f 10/55/1 21/56/1 23/57/1 14/58/1
f 13/59/5 15/54/5 24/40/5 23/39/5
f 6/60/2 20/27/2 22/30/2 11/61/2
f 5/62/6 1/63/6 17/64/6 19/65/6
f 3/66/1 18/67/1 21/68/1 10/69/1
f 5/62/2 19/65/2 20/70/2 6/71/2
f 1/72/1 2/73/1 18/74/1 17/75/1
f 28/76/6 27/77/6 25/78/6 26/79/6
f 4/80/3 8/81/3 34/82/3 33/83/3
f 19/84/3 17/85/3 27/86/3 28/87/3
f 17/1/1 4/4/1 25/88/1 27/89/1
f 29/90/4 30/91/4 32/92/4 31/93/4
f 8/6/2 26/22/2 32/94/2 30/95/2
f 26/79/6 25/78/6 31/96/6 32/97/6
f 25/88/1 4/4/1 29/98/1 31/99/1
f 33/100/5 34/101/5 36/102/5 35/103/5
f 8/6/2 30/95/2 36/104/2 34/105/2
f 30/106/4 29/107/4 35/108/4 36/109/4
f 29/110/1 4/111/1 33/112/1 35/113/1
